<svg width="320" height="320" viewBox="0 0 320 320" fill="none" xmlns="http://www.w3.org/2000/svg">
  <g transform="translate(160 160)" stroke="#111827" stroke-width="2.8" stroke-linecap="round" stroke-linejoin="round" opacity="0.9">
    <path d="M0-108C18-86 20-58 0-28C-20-58-18-86 0-108Z"/>
    <path d="M0-82C13-67 14-47 0-25C-14-47-13-67 0-82Z"/>
    <g transform="rotate(30)">
      <path d="M0-108C18-86 20-58 0-28C-20-58-18-86 0-108Z"/>
      <path d="M0-82C13-67 14-47 0-25C-14-47-13-67 0-82Z"/>
    </g>
    <g transform="rotate(60)">
      <path d="M0-108C18-86 20-58 0-28C-20-58-18-86 0-108Z"/>
      <path d="M0-82C13-67 14-47 0-25C-14-47-13-67 0-82Z"/>
    </g>
    <g transform="rotate(90)">
      <path d="M0-108C18-86 20-58 0-28C-20-58-18-86 0-108Z"/>
      <path d="M0-82C13-67 14-47 0-25C-14-47-13-67 0-82Z"/>
    </g>
    <g transform="rotate(120)">
      <path d="M0-108C18-86 20-58 0-28C-20-58-18-86 0-108Z"/>
      <path d="M0-82C13-67 14-47 0-25C-14-47-13-67 0-82Z"/>
    </g>
    <g transform="rotate(150)">
      <path d="M0-108C18-86 20-58 0-28C-20-58-18-86 0-108Z"/>
      <path d="M0-82C13-67 14-47 0-25C-14-47-13-67 0-82Z"/>
    </g>
    <g transform="rotate(180)">
      <path d="M0-108C18-86 20-58 0-28C-20-58-18-86 0-108Z"/>
      <path d="M0-82C13-67 14-47 0-25C-14-47-13-67 0-82Z"/>
    </g>
    <g transform="rotate(210)">
      <path d="M0-108C18-86 20-58 0-28C-20-58-18-86 0-108Z"/>
      <path d="M0-82C13-67 14-47 0-25C-14-47-13-67 0-82Z"/>
    </g>
    <g transform="rotate(240)">
      <path d="M0-108C18-86 20-58 0-28C-20-58-18-86 0-108Z"/>
      <path d="M0-82C13-67 14-47 0-25C-14-47-13-67 0-82Z"/>
    </g>
    <g transform="rotate(270)">
      <path d="M0-108C18-86 20-58 0-28C-20-58-18-86 0-108Z"/>
      <path d="M0-82C13-67 14-47 0-25C-14-47-13-67 0-82Z"/>
    </g>
    <g transform="rotate(300)">
      <path d="M0-108C18-86 20-58 0-28C-20-58-18-86 0-108Z"/>
      <path d="M0-82C13-67 14-47 0-25C-14-47-13-67 0-82Z"/>
    </g>
    <g transform="rotate(330)">
      <path d="M0-108C18-86 20-58 0-28C-20-58-18-86 0-108Z"/>
      <path d="M0-82C13-67 14-47 0-25C-14-47-13-67 0-82Z"/>
    </g>
    <circle r="20"/>
    <circle r="10"/>
  </g>
</svg>
