<svg width="320" height="320" viewBox="0 0 320 320" fill="none" xmlns="http://www.w3.org/2000/svg">
  <g transform="translate(160 160)" fill="#63872E" opacity="0.96">
    <path d="M0-96C14-82 18-62 0-42C-18-62-14-82 0-96Z"/>
    <path d="M0 96C14 82 18 62 0 42C-18 62-14 82 0 96Z"/>
    <path d="M96 0C82-14 62-18 42 0C62 18 82 14 96 0Z"/>
    <path d="M-96 0C-82-14 -62-18 -42 0C-62 18 -82 14 -96 0Z"/>
    <g transform="rotate(45)">
      <path d="M0-86C12-72 16-54 0-36C-16-54-12-72 0-86Z"/>
      <path d="M0 86C12 72 16 54 0 36C-16 54-12 72 0 86Z"/>
      <path d="M86 0C72-12 54-16 36 0C54 16 72 12 86 0Z"/>
      <path d="M-86 0C-72-12 -54-16 -36 0C-54 16 -72 12 -86 0Z"/>
    </g>
    <g transform="rotate(22.5)">
      <path d="M0-52C8-44 10-34 0-24C-10-34-8-44 0-52Z"/>
      <path d="M0 52C8 44 10 34 0 24C-10 34-8 44 0 52Z"/>
      <path d="M52 0C44-8 34-10 24 0C34 10 44 8 52 0Z"/>
      <path d="M-52 0C-44-8 -34-10 -24 0C-34 10 -44 8 -52 0Z"/>
    </g>
    <circle r="28"/>
    <circle r="12" fill="#85A83D"/>
  </g>
</svg>
