<svg width="480" height="640" viewBox="0 0 480 640" fill="none" xmlns="http://www.w3.org/2000/svg">
  <g stroke="#6B6F1E" stroke-width="6" stroke-linecap="round" stroke-linejoin="round">
    <path d="M84 620C88 544 100 484 126 430C152 376 196 326 248 282C300 238 330 190 336 138"/>
    <path d="M160 536C166 470 194 420 242 388"/>
    <path d="M248 282C244 214 212 160 158 118"/>
    <path d="M242 388C296 368 342 326 380 260"/>
    <path d="M148 468C96 432 70 394 66 356"/>
  </g>
  <g fill="#7A8124" opacity="0.96">
    <path d="M318 122C346 114 374 126 390 152C358 166 328 162 318 122Z"/>
    <path d="M274 222C304 220 328 236 338 262C308 270 282 258 274 222Z"/>
    <path d="M206 324C234 316 262 326 278 350C248 364 218 358 206 324Z"/>
    <path d="M156 426C182 418 210 428 226 452C196 466 168 462 156 426Z"/>
    <path d="M118 246C86 238 62 214 56 184C90 184 114 202 118 246Z"/>
    <path d="M102 392C70 390 40 372 24 342C58 336 88 350 102 392Z"/>
    <path d="M352 342C382 332 414 342 438 366C402 380 370 374 352 342Z"/>
    <path d="M296 458C326 448 358 458 380 482C344 496 312 490 296 458Z"/>
    <path d="M124 92C148 82 176 84 200 102C170 122 142 120 124 92Z"/>
  </g>
  <g stroke="#899131" stroke-width="4" stroke-linecap="round" opacity="0.7">
    <path d="M346 120C324 156 302 188 274 220"/>
    <path d="M164 118C198 150 226 204 242 280"/>
    <path d="M62 184C86 218 104 238 118 246"/>
    <path d="M380 366C346 346 302 352 242 388"/>
    <path d="M24 342C56 372 96 410 148 468"/>
  </g>
</svg>
